<?xml version="1.0" encoding="utf-8"?>
<!-- Generator: Adobe Illustrator 16.2.0, SVG Export Plug-In . SVG Version: 6.00 Build 0)  -->
<!DOCTYPE svg PUBLIC "-//W3C//DTD SVG 1.1//EN" "http://www.w3.org/Graphics/SVG/1.1/DTD/svg11.dtd">
<svg version="1.1" id="Layer_1" xmlns="http://www.w3.org/2000/svg" xmlns:xlink="http://www.w3.org/1999/xlink" x="0px" y="0px"
	 width="118.007px" height="83.449px" viewBox="0 0 118.007 83.449" enable-background="new 0 0 118.007 83.449"
	 xml:space="preserve">
<g>
	<path d="M113.617,40.464c0,4.392-1.268,8.478-3.799,12.258c-2.532,3.78-5.982,6.763-10.35,8.946
		c-4.368,2.184-9.12,3.276-14.256,3.276c-6.24,0-12.03-1.464-17.37-4.392c-5.34-2.928-9.198-6.899-11.574-11.916
		c0.768,1.632,1.152,3.348,1.152,5.148c0,3.073-1.092,5.701-3.276,7.884c-2.184,2.184-4.812,3.276-7.884,3.276
		c-3.288,0-6.09-1.166-8.406-3.496c-2.316-2.33-3.474-5.129-3.474-8.397c0-3.652,1.056-6.751,3.168-9.298
		c2.112-2.547,5.16-4.421,9.144-5.623c-2.136-1.514-4.8-2.781-7.992-3.802c-3.192-1.021-6.108-1.532-8.748-1.532
		c-5.305,0-9.895,1.732-13.77,5.195c-3.876,3.463-5.814,7.768-5.814,12.913c0.888-0.48,1.967-0.72,3.24-0.72
		c2.016,0,3.744,0.72,5.184,2.16s2.16,3.168,2.16,5.184s-0.72,3.756-2.16,5.22c-1.44,1.463-3.168,2.196-5.184,2.196
		c-2.472,0-4.518-1.044-6.138-3.132c-1.62-2.088-2.43-4.884-2.43-8.388c0-3.983,1.146-7.746,3.438-11.286
		c2.292-3.54,5.376-6.366,9.252-8.478c3.875-2.111,7.95-3.168,12.222-3.168c2.424,0,5.501,0.499,9.234,1.494
		c3.731,0.996,6.57,2.142,8.514,3.438c-1.008-1.584-1.896-3.479-2.664-5.688c-0.769-2.208-1.152-4.068-1.152-5.58
		c0-3.072,1.152-5.76,3.456-8.064c2.304-2.304,4.992-3.456,8.064-3.456c3.072,0,5.7,1.092,7.884,3.276
		c2.184,2.185,3.276,4.812,3.276,7.884c0,2.136-0.576,4.128-1.728,5.976c0.959-0.288,1.56-0.432,1.8-0.432
		c2.664,0,5.045,0.816,7.146,2.448c2.1,1.632,4.674,5.136,7.722,10.512c3,5.328,5.568,8.826,7.704,10.494
		c2.136,1.668,4.523,2.502,7.164,2.502c2.664,0,5.094-0.684,7.29-2.052c2.196-1.368,3.996-3.294,5.4-5.778s2.105-4.818,2.105-7.002
		c0-2.208-0.588-4.008-1.764-5.4c-1.176-1.392-2.676-2.088-4.5-2.088c-1.152,0-2.1,0.366-2.844,1.098
		c-0.744,0.732-1.116,1.662-1.116,2.79c0,0.72,0.096,1.392,0.288,2.016c-1.536,0-2.766-0.468-3.69-1.404
		c-0.924-0.936-1.386-2.148-1.386-3.636c0-1.632,0.642-3.03,1.926-4.194c1.284-1.164,2.813-1.746,4.589-1.746
		c3.289,0,5.935,1.165,7.938,3.492C112.614,33.721,113.617,36.745,113.617,40.464z"/>
</g>
</svg>
